<?xml version="1.0" standalone="no"?>
<!DOCTYPE svg PUBLIC "-//W3C//DTD SVG 20010904//EN"
 "http://www.w3.org/TR/2001/REC-SVG-20010904/DTD/svg10.dtd">
<svg version="1.0" xmlns="http://www.w3.org/2000/svg"
 width="400.000000pt" height="256.000000pt" viewBox="0 0 400.000000 256.000000"
 preserveAspectRatio="xMidYMid meet">
<metadata>
Created by potrace 1.15, written by Peter Selinger 2001-2017
</metadata>
<g transform="translate(0.000000,256.000000) scale(0.100000,-0.100000)"
fill="#000000" stroke="none">
<path d="M2353 1898 c-5 -7 -58 -134 -118 -283 -59 -148 -111 -273 -114 -277
-3 -4 -58 121 -121 277 l-115 285 -54 0 c-50 0 -53 -1 -48 -22 3 -12 70 -176
149 -365 l143 -344 43 3 44 3 96 232 97 231 3 -234 2 -234 50 0 50 0 0 270 0
270 -35 0 c-19 0 -35 2 -35 4 0 1 5 17 11 35 8 23 17 31 35 31 23 0 24 3 24
65 l0 65 -49 0 c-27 0 -53 -6 -58 -12z"/>
<path d="M1526 1662 c-54 -130 -123 -294 -152 -364 l-53 -128 58 0 57 0 44
110 45 110 140 0 140 0 45 -110 c44 -108 46 -110 78 -110 25 0 32 -4 32 -20 0
-11 -4 -20 -10 -20 -5 0 -10 -13 -10 -30 0 -16 -4 -30 -10 -30 -5 0 -10 -9
-10 -20 0 -11 -4 -20 -10 -20 -5 0 -10 5 -10 10 0 6 -9 10 -20 10 -11 0 -20 5
-20 10 0 6 -22 10 -50 10 l-50 0 0 -49 c0 -28 5 -53 10 -56 6 -3 10 -15 10
-26 0 -10 5 -19 10 -19 6 0 10 -4 10 -10 0 -5 -11 -10 -25 -10 -31 0 -75 -41
-75 -70 0 -24 42 -70 65 -70 8 0 15 -4 15 -10 0 -5 7 -10 15 -10 9 0 26 -9 38
-20 17 -16 32 -20 72 -18 49 3 50 4 53 37 3 25 -2 38 -20 52 -20 16 -23 26
-20 74 l4 55 34 0 c30 0 34 3 35 28 l1 27 11 -27 c10 -25 16 -28 59 -28 l48 0
0 -50 c0 -39 -4 -50 -16 -50 -28 0 -44 -27 -44 -74 l0 -46 40 0 c22 0 40 5 40
10 0 6 9 10 20 10 11 0 20 5 20 10 0 6 9 10 20 10 11 0 20 5 20 10 0 6 9 10
20 10 11 0 20 5 20 10 0 6 7 10 16 10 24 0 44 26 44 58 0 28 -26 62 -47 62 -6
0 -17 7 -24 17 -11 13 -11 17 -1 20 6 3 12 16 12 29 0 13 5 24 10 24 15 0 12
70 -4 86 -16 16 -86 19 -86 4 0 -5 -9 -10 -20 -10 -11 0 -20 -4 -20 -10 0 -15
-29 -12 -46 4 -8 8 -14 31 -14 51 0 22 -4 34 -10 30 -5 -3 -10 -1 -10 5 0 13
-20 35 -38 41 -7 2 -79 163 -159 357 l-147 352 -40 0 -41 0 -99 -238z m239
-161 c6 -20 4 -21 -100 -21 -98 0 -107 2 -101 18 4 9 28 69 54 133 l47 116 46
-112 c26 -62 50 -122 54 -134z"/>
<path d="M541 1254 c-22 -10 -101 -92 -101 -104 0 -6 -22 -33 -50 -60 -27 -27
-50 -54 -50 -60 0 -6 -11 -22 -25 -35 -23 -24 -30 -25 -140 -25 -165 0 -166
-1 -173 -265 l-5 -190 31 -33 c23 -25 38 -32 66 -32 29 0 36 -4 36 -20 0 -11
5 -20 10 -20 6 0 10 -18 10 -40 0 -22 5 -40 10 -40 6 0 10 -7 10 -15 0 -23 48
-72 92 -95 92 -48 308 -12 308 52 0 8 9 20 20 28 11 8 20 22 20 32 0 14 8 18
40 18 22 0 40 -4 40 -10 0 -5 22 -10 49 -10 28 0 53 -4 56 -10 3 -5 31 -10 61
-10 30 0 54 -4 54 -10 0 -5 24 -10 53 -10 29 0 57 -4 63 -9 8 -9 37 -13 159
-27 28 -3 54 -10 59 -15 6 -5 23 -9 38 -9 18 0 28 -5 28 -15 0 -8 5 -15 10
-15 6 0 10 -15 10 -34 0 -28 11 -45 64 -100 l64 -66 111 0 c67 0 111 4 111 10
0 6 7 10 15 10 26 0 105 86 105 115 0 14 5 25 10 25 6 0 10 -4 10 -10 0 -5 20
-10 45 -10 39 0 51 5 81 36 32 32 35 39 30 72 -4 20 -9 54 -12 75 -4 20 -10
40 -15 43 -5 3 -9 23 -9 45 0 21 -4 39 -10 39 -5 0 -10 23 -10 50 0 28 3 50 8
50 4 0 13 13 20 30 12 25 11 32 -1 45 -9 8 -27 15 -41 15 -14 0 -26 5 -26 10
0 6 -13 10 -30 10 -16 0 -30 5 -30 10 0 6 -13 10 -30 10 -16 0 -30 5 -30 10 0
6 -13 10 -30 10 -16 0 -30 4 -30 8 0 4 -17 9 -37 10 -21 2 -39 7 -41 12 -2 6
-15 10 -28 10 -13 0 -24 5 -24 10 0 6 -9 10 -20 10 -11 0 -20 6 -20 13 0 7 -8
22 -17 33 -10 10 -24 31 -32 47 -8 15 -18 27 -23 27 -4 0 -8 7 -8 15 0 8 -9
20 -20 27 -11 7 -20 20 -20 28 0 9 -9 22 -20 30 -11 8 -20 21 -20 30 0 9 -9
22 -20 30 -11 8 -20 20 -20 27 0 16 -83 103 -98 103 -7 0 -12 5 -12 10 0 6
-13 10 -29 10 -17 0 -33 5 -36 10 -3 6 -30 10 -60 10 -30 0 -57 5 -60 10 -3 6
-35 10 -70 10 -35 0 -65 5 -67 10 -4 12 -334 24 -357 14z m209 -174 c0 -5 9
-10 20 -10 17 0 20 -7 20 -50 0 -27 -4 -50 -10 -50 -5 0 -10 -16 -10 -36 l0
-36 -42 5 c-24 2 -52 7 -63 10 -11 3 -55 8 -98 12 l-79 7 31 32 c17 18 31 37
31 44 0 7 15 28 33 47 30 32 36 34 100 34 38 1 67 -3 67 -9z m290 -40 c0 -5
18 -10 40 -10 22 0 40 -4 40 -10 0 -5 7 -10 15 -10 17 0 65 -43 65 -57 0 -5 9
-15 20 -23 11 -8 20 -22 20 -32 0 -10 4 -18 8 -18 11 0 43 -73 35 -79 -3 -4
-8 0 -10 7 -3 7 -24 12 -58 12 -30 0 -57 5 -60 10 -3 6 -31 10 -61 10 -30 0
-54 5 -54 10 0 6 -22 10 -50 10 l-50 0 0 40 c0 22 5 40 10 40 6 0 10 18 10 40
0 23 6 47 13 55 14 16 67 20 67 5z m-620 -500 c0 -5 7 -10 16 -10 20 0 44 -24
44 -44 0 -9 5 -16 10 -16 6 0 10 -9 10 -20 0 -11 -4 -20 -10 -20 -5 0 -10 -7
-10 -15 0 -32 -47 -65 -90 -65 -53 0 -110 52 -110 100 0 46 54 98 103 99 20 1
37 -3 37 -9z m1190 -199 c0 -5 8 -11 19 -14 31 -8 71 -117 43 -117 -5 0 -14
-11 -20 -25 -6 -14 -18 -25 -27 -25 -8 0 -15 -4 -15 -10 0 -5 -13 -10 -30 -10
-16 0 -30 5 -30 10 0 6 -7 10 -16 10 -18 0 -44 23 -44 39 0 6 -4 11 -10 11
-14 0 -12 46 3 72 19 34 34 48 51 48 9 0 16 5 16 10 0 6 14 10 30 10 17 0 30
-4 30 -9z"/>
<path d="M3165 1253 c-33 -2 -64 -8 -69 -14 -6 -5 -36 -9 -68 -9 -32 0 -58 -4
-58 -10 0 -6 -27 -10 -60 -10 -33 0 -60 -4 -60 -10 0 -5 -11 -10 -24 -10 -14
0 -28 -4 -31 -10 -3 -5 -15 -10 -26 -10 -10 0 -19 -4 -19 -10 0 -5 -5 -10 -11
-10 -15 0 -39 -26 -39 -42 0 -8 -9 -20 -20 -28 -11 -8 -20 -21 -20 -30 0 -9
-9 -22 -20 -30 -11 -8 -20 -21 -20 -29 0 -7 -8 -21 -18 -30 -9 -9 -23 -28 -31
-43 -8 -15 -22 -37 -33 -47 -10 -11 -18 -26 -18 -33 0 -8 -9 -20 -20 -28 -11
-8 -20 -22 -20 -32 0 -11 -7 -18 -20 -18 -11 0 -20 -4 -20 -10 0 -5 -13 -10
-30 -10 -16 0 -30 -4 -30 -10 0 -5 -16 -10 -35 -10 -19 0 -35 -4 -35 -10 0 -5
-13 -10 -30 -10 -16 0 -30 -4 -30 -10 0 -5 -13 -10 -30 -10 -16 0 -30 -4 -30
-10 0 -5 -13 -10 -30 -10 -16 0 -30 -4 -30 -10 0 -5 -13 -10 -30 -10 -16 0
-30 -4 -30 -10 0 -5 -13 -10 -30 -10 -16 0 -30 -4 -30 -10 0 -5 -7 -10 -15
-10 -8 0 -15 -9 -15 -20 0 -11 -4 -20 -10 -20 -6 0 -10 -32 -10 -75 0 -41 4
-75 9 -75 5 0 11 -19 14 -42 9 -80 38 -168 64 -195 7 -8 38 -13 77 -13 52 0
66 -3 66 -15 0 -20 105 -125 125 -125 8 0 15 -4 15 -10 0 -6 38 -10 95 -10 57
0 95 4 95 10 0 6 9 10 20 10 11 0 20 5 20 10 0 6 7 10 15 10 20 0 65 45 65 65
0 8 5 15 10 15 6 0 10 9 10 20 0 11 4 20 8 20 4 0 9 15 10 33 3 42 25 57 84
57 26 0 48 5 48 10 0 6 24 10 54 10 30 0 58 4 61 10 3 5 28 10 55 10 27 0 52
5 55 10 3 6 28 10 56 10 27 0 49 5 49 10 0 6 27 10 60 10 33 0 60 4 60 10 0 6
25 10 55 10 32 0 55 4 55 11 0 6 7 4 15 -5 8 -8 15 -22 15 -30 0 -9 5 -16 10
-16 6 0 10 -8 10 -17 0 -10 23 -33 50 -52 42 -28 62 -35 118 -38 96 -7 146 9
204 67 32 33 48 57 48 74 0 14 5 26 10 26 6 0 10 18 10 40 0 38 2 40 30 40 17
0 30 5 30 10 0 6 12 10 26 10 51 0 54 12 54 230 l0 201 -35 34 -34 35 -106 0
c-99 0 -107 2 -130 25 -14 13 -25 29 -25 35 0 6 -27 38 -60 70 -33 32 -60 64
-60 70 0 14 -46 60 -60 60 -6 0 -18 7 -26 15 -15 15 -130 18 -299 8z m195
-153 c0 -5 7 -10 16 -10 16 0 44 -23 44 -37 0 -4 20 -33 45 -63 l45 -55 -42
-7 c-24 -3 -64 -7 -90 -7 -26 -1 -50 -5 -53 -11 -10 -17 -85 -12 -85 5 0 8 -4
15 -10 15 -5 0 -10 23 -10 50 0 28 -4 50 -10 50 -15 0 -12 29 4 46 9 9 35 14
70 14 31 0 56 5 56 10 0 6 5 10 10 10 6 0 10 -4 10 -10z m-330 -70 c0 -11 5
-20 10 -20 6 0 10 -20 10 -45 0 -25 5 -45 10 -45 6 0 10 -13 10 -30 0 -29 -1
-30 -50 -30 -27 0 -50 -4 -50 -8 0 -5 -26 -10 -57 -11 -32 -1 -59 -6 -61 -12
-2 -5 -28 -9 -58 -9 -30 0 -54 -4 -54 -10 0 -5 -7 -10 -15 -10 -21 0 -19 22 5
48 11 12 20 27 20 34 0 8 9 20 20 28 11 8 20 18 20 23 0 14 69 77 85 77 8 0
15 5 15 10 0 6 18 10 40 10 22 0 40 5 40 10 0 6 14 10 30 10 23 0 30 -4 30
-20z m655 -505 c14 -13 25 -31 25 -40 0 -8 5 -15 10 -15 23 0 8 -52 -25 -85
-28 -29 -42 -35 -75 -35 -43 0 -90 33 -90 65 0 8 -4 15 -10 15 -22 0 -9 52 23
85 42 44 104 49 142 10z m-1199 -209 c19 -19 34 -41 34 -49 0 -9 6 -18 13 -21
10 -5 10 -7 0 -12 -7 -3 -13 -13 -13 -22 0 -10 -10 -24 -22 -32 -61 -39 -98
-51 -98 -30 0 6 -8 10 -17 10 -23 0 -53 53 -53 93 1 36 30 77 54 77 9 0 16 5
16 10 0 23 53 9 86 -24z"/>
</g>
</svg>
